<svg xmlns="http://www.w3.org/2000/svg" width="20" height="20" viewBox="0 0 24 24"><path fill="#ffffff" d="M12 21q-3.15 0-5.575-1.912T3.275 14.2q-.1-.375.15-.687t.675-.363q.4-.05.725.15t.45.6q.6 2.25 2.475 3.675T12 19q2.925 0 4.963-2.037T19 12q0-2.925-2.037-4.962T12 5q-1.725 0-3.225.8T6.25 8H8q.425 0 .713.288T9 9q0 .425-.288.713T8 10H4q-.425 0-.712-.288T3 9V5q0-.425.288-.712T4 4q.425 0 .713.288T5 5v1.35q1.275-1.6 3.113-2.475T12 3q1.875 0 3.513.713t2.85 1.924q1.212 1.213 1.925 2.85T21 12q0 1.875-.712 3.513t-1.925 2.85q-1.213 1.212-2.85 1.925T12 21m1-9.4l2.5 2.5q.275.275.275.7t-.275.7q-.275.275-.7.275t-.7-.275l-2.8-2.8q-.15-.15-.225-.337T11 11.975V8q0-.425.288-.712T12 7q.425 0 .713.288T13 8z"/></svg>