<svg xmlns="http://www.w3.org/2000/svg" width="20" height="20" viewBox="0 0 24 24"><path fill="#ffffff" d="M14.5 23q-.625 0-1.062-.437T13 21.5v-7q0-.625.438-1.062T14.5 13h7q.625 0 1.063.438T23 14.5v7q0 .625-.437 1.063T21.5 23zm.5-1.5h6q.2 0 .35-.15t.15-.35q0-.15-.05-.275t-.15-.25q-.625-.675-1.463-1.075T18 19q-1 0-1.838.4T14.7 20.475q-.05.05-.2.525q0 .2.15.35t.35.15m3-3.5q.625 0 1.063-.437T19.5 16.5q0-.625-.437-1.062T18 15q-.625 0-1.062.438T16.5 16.5q0 .625.438 1.063T18 18m-7.925 4q-.375 0-.612-.213t-.288-.537l-.325-2.4q-.325-.125-.612-.3t-.563-.375l-1.55.65q-.625.275-1.25.05t-.975-.8l-1.175-2.05q-.35-.575-.2-1.225t.675-1.075l1.325-1q-.025-.175-.025-.337v-.676q0-.162.025-.337l-1.325-1Q2.675 9.95 2.525 9.3t.2-1.225L3.9 6.025q.35-.575.975-.8t1.25.05l1.55.65q.275-.2.575-.375t.6-.3l.225-1.65q.1-.65.588-1.1t1.162-.45h2.35q.675 0 1.163.45t.587 1.1l.225 1.65q.325.125.613.3t.562.375l1.55-.65q.625-.275 1.25-.05t.975.8l1.175 2.05q.35.575.2 1.225t-.675 1.075l-.625.45q-.125.1-.275.138t-.3.037h-3.875q-.15 0-.275-.1t-.175-.225q-.4-.95-1.263-1.562T12.05 8.5q-1.45 0-2.475 1.025T8.55 12q0 1.1.588 1.963t1.537 1.262q.125.05.225.175t.1.275v5.475q0 .35-.262.6t-.663.25"/></svg>